<?xml version="1.0" encoding="utf-8"?>
<!-- Generator: Adobe Illustrator 15.0.2, SVG Export Plug-In  -->
<!DOCTYPE svg PUBLIC "-//W3C//DTD SVG 1.1//EN" "http://www.w3.org/Graphics/SVG/1.1/DTD/svg11.dtd" [
	<!ENTITY ns_flows "http://ns.adobe.com/Flows/1.0/">
]>
<svg version="1.1"
	 xmlns="http://www.w3.org/2000/svg" xmlns:xlink="http://www.w3.org/1999/xlink" xmlns:a="http://ns.adobe.com/AdobeSVGViewerExtensions/3.0/"
	 x="0px" y="0px" width="256px" height="188px" viewBox="172 495 256 188"
	 overflow="visible" enable-background="new 172 495 256 188" xml:space="preserve">
<defs>
</defs>
<g display="none">
	<rect x="0.5" y="13.5" display="inline" fill-rule="evenodd" clip-rule="evenodd" fill="#FFFFFF" width="979.001" height="670"/>
	<path display="inline" fill="#D4D4D4" d="M979.001,14v669H1V14H979.001 M980.001,13H0v671h980.001V13L980.001,13z"/>
</g>
<path display="none" fill="none" stroke="#FFD24D" stroke-width="10" stroke-linecap="round" stroke-linejoin="round" stroke-miterlimit="10" d="
	M300.001,692c0,0,0-190.5,0-210s20-20,20-20h402c20,0,20-20.043,20-20.043V255c0-19.5-20-20-20-20h-642c-20.136,0-20-20-20-20V5"/>
<g display="none">
	<g display="inline">
		<path fill="none" stroke="#F5C336" stroke-width="10" stroke-linecap="round" stroke-linejoin="round" d="M300.001,692
			c0,0,0-8.669,0-22.498"/>
		
			<path fill="none" stroke="#F5C336" stroke-width="10" stroke-linecap="round" stroke-linejoin="round" stroke-dasharray="44.4253,44.4253" d="
			M300.001,625.061c0-56.919,0-131.267,0-143.061c0-19.5,20-20,20-20h402c20,0,20-20.043,20-20.043V255c0-19.5-20-20-20-20h-642
			c-20.136,0-20-20-20-20V49.698"/>
		
			<line fill="none" stroke="#F5C336" stroke-width="10" stroke-linecap="round" stroke-linejoin="round" x1="60.001" y1="27.5" x2="60.001" y2="5"/>
	</g>
</g>
<g>
	<defs>
		<rect id="SVGID_2_" x="157.58" y="481.334" width="284.666" height="201.666"/>
	</defs>
	<clipPath id="SVGID_3_">
		<use xlink:href="#SVGID_2_"  overflow="visible"/>
	</clipPath>
	<path clip-path="url(#SVGID_3_)" fill="#F1F2F2" d="M428,503c0-3.977-4.023-8-8-8H180c-3.977,0-8,4.023-8,8v204
		c0,3.977,4.023,8,8,8h240c3.977,0,8-4.023,8-8V503z"/>
	<path clip-path="url(#SVGID_3_)" fill="#DCDDDE" d="M172,591v116c0,3.977,4.023,8,8,8h240c3.977,0,8-4.023,8-8V591H172z"/>
	<g display="none" clip-path="url(#SVGID_3_)">
		<g display="inline">
			
				<line fill="none" stroke="#C7C8CA" stroke-width="9" stroke-linecap="round" stroke-linejoin="round" x1="205" y1="591" x2="205" y2="591"/>
			
				<line fill="none" stroke="#C7C8CA" stroke-width="9" stroke-linecap="round" stroke-linejoin="round" stroke-dasharray="0,17.2727" x1="222.272" y1="591" x2="386.363" y2="591"/>
			
				<line fill="none" stroke="#C7C8CA" stroke-width="9" stroke-linecap="round" stroke-linejoin="round" x1="395" y1="591" x2="395" y2="591"/>
		</g>
	</g>
</g>
<polygon display="none" fill="#E7E8E9" points="318,654 240,654 240,528 360,528 360,612 "/>
<rect x="255" y="543" display="none" fill="#F3B41B" width="90" height="60"/>
<rect x="255" y="621" display="none" fill="#FFD24D" width="79.5" height="12"/>
<polygon display="none" fill="#FFD24D" points="288,558 288,588 312,573 "/>
<polygon display="none" fill="#E7E8E9" points="318,612 318,654 360,612 "/>
<polygon display="none" opacity="0.2" points="318,654 318,612 279,654 "/>
<path display="none" fill="#F3B41B" d="M289.5,627c0-5.803-4.713-10.5-10.5-10.5s-10.5,4.697-10.5,10.5
	c0,5.804,4.713,10.5,10.5,10.5S289.5,632.804,289.5,627z"/>
<g>
	<defs>
		<path id="SVGID_1_" d="M428,503c0-3.977-4.023-8-8-8H180c-3.977,0-8,4.023-8,8v204c0,3.977,4.023,8,8,8h240c3.977,0,8-4.023,8-8
			V503z"/>
	</defs>
	<clipPath id="SVGID_4_">
		<use xlink:href="#SVGID_1_"  overflow="visible"/>
	</clipPath>
	<g display="none" clip-path="url(#SVGID_4_)">
		<polygon fill="#E7E8E9" points="184,622 145,622 145,559 205,559 205,601 		"/>
		<rect x="179.5" y="598" fill="#04A95F" width="18" height="6"/>
		<rect x="152.5" y="587.5" fill="#04A95F" width="45" height="6"/>
		<rect x="179.5" y="577" fill="#04A95F" width="18" height="6"/>
		<rect x="179.5" y="566.5" fill="#04A95F" width="18" height="6"/>
		<rect x="179.5" y="608.5" fill="#04A95F" width="4.5" height="6"/>
		<polygon fill="#E7E8E9" points="184,601 184,622 205,601 		"/>
		<rect x="152.5" y="566.5" fill="#04A95F" width="22.5" height="16.5"/>
		<rect x="152.5" y="598" fill="#04A95F" width="22.5" height="16.5"/>
		<circle fill="#03914A" cx="163.75" cy="574.75" r="6"/>
		<polygon fill="#03914A" points="163.75,601 172,611.5 155.5,611.5 		"/>
		<polygon opacity="0.8" fill="#B2B4B6" points="184,622 184,601 164.5,622 		"/>
	</g>
	<g display="none" clip-path="url(#SVGID_4_)">
		<polygon fill="#E7E8E9" points="434,622 395,622 395,559 455,559 455,601 		"/>
		<rect x="402.5" y="566.5" fill="#E04A3F" width="45" height="27"/>
		<rect x="402.5" y="598" fill="#CD372C" width="16.5" height="16.5"/>
		<polygon fill="#CD372C" points="441.5,614.5 423.5,614.5 423.5,598 447.5,598 447.5,608.5 		"/>
		<polygon fill="#E7E8E9" points="434,601 434,622 455,601 		"/>
		<polygon opacity="0.8" fill="#B2B4B6" points="434,622 434,601 414.5,622 		"/>
		<rect x="405.436" y="601" fill="#E04A3F" width="4.5" height="10.5"/>
		<rect x="411.5" y="604" fill="#E04A3F" width="4.5" height="7.5"/>
		<rect x="407.718" y="574" fill="#CD372C" width="4.5" height="15"/>
		<rect x="415.282" y="570.625" fill="#CD372C" width="4.5" height="18.375"/>
		<rect x="422.782" y="575.5" fill="#CD372C" width="4.5" height="13.5"/>
		<rect x="430.282" y="579.25" fill="#CD372C" width="4.5" height="9.75"/>
		<rect x="437.782" y="581.5" fill="#CD372C" width="4.5" height="7.5"/>
	</g>
	<g display="none" clip-path="url(#SVGID_4_)">
		<polygon fill="#E7E8E9" points="431,612 405,612 405,570 445,570 445,598 		"/>
		<rect x="410" y="596" fill="#E04A3F" width="30" height="4"/>
		<rect x="410" y="603" fill="#E04A3F" width="21" height="4"/>
		<polygon fill="#E7E8E9" points="431,598 431,612 445,598 		"/>
		<polygon opacity="0.2" points="431,612 431,598 418,612 		"/>
		<rect x="410" y="575" fill="#E04A3F" width="30" height="18"/>
		<polygon fill="#CD372C" points="410,593 418,581 426,593 		"/>
		<polygon fill="#CD372C" points="418,593 425,584 432,593 		"/>
		<circle fill="#CD372C" cx="434" cy="581" r="3.5"/>
	</g>
	<g display="none" clip-path="url(#SVGID_4_)">
		<polygon fill="#E7E8E9" points="181,612 155,612 155,570 195,570 195,598 		"/>
		<rect x="178" y="596" fill="#04A95F" width="12" height="4"/>
		<rect x="160" y="589" fill="#04A95F" width="30" height="4"/>
		<rect x="178" y="582" fill="#04A95F" width="12" height="4"/>
		<rect x="178" y="575" fill="#04A95F" width="12" height="4"/>
		<rect x="178" y="603" fill="#04A95F" width="3" height="4"/>
		<polygon fill="#E7E8E9" points="181,598 181,612 195,598 		"/>
		<rect x="160" y="575" fill="#04A95F" width="15" height="11"/>
		<rect x="160" y="596" fill="#04A95F" width="15" height="11"/>
		<circle fill="#03914A" cx="167.5" cy="580.5" r="4"/>
		<polygon fill="#03914A" points="167.5,598 173,605 162,605 		"/>
		<polygon opacity="0.2" points="181,612 181,598 168,612 		"/>
	</g>
</g>
</svg>