<?xml version="1.0" encoding="utf-8"?>
<!-- Generator: Adobe Illustrator 15.0.2, SVG Export Plug-In  -->
<!DOCTYPE svg PUBLIC "-//W3C//DTD SVG 1.1//EN" "http://www.w3.org/Graphics/SVG/1.1/DTD/svg11.dtd" [
	<!ENTITY ns_flows "http://ns.adobe.com/Flows/1.0/">
]>
<svg version="1.1"
	 xmlns="http://www.w3.org/2000/svg" xmlns:xlink="http://www.w3.org/1999/xlink" xmlns:a="http://ns.adobe.com/AdobeSVGViewerExtensions/3.0/"
	 x="0px" y="0px" width="408px" height="9px" viewBox="200.495 586.5 408 9"
	 overflow="visible" enable-background="new 200.495 586.5 408 9" xml:space="preserve">
<defs>
</defs>
<g display="none">
	<rect x="0.5" y="13.5" display="inline" fill-rule="evenodd" clip-rule="evenodd" fill="#FFFFFF" width="979.001" height="670"/>
	<path display="inline" fill="#D4D4D4" d="M979.001,14v669H1V14H979.001 M980.001,13H0v671h980.001V13L980.001,13z"/>
</g>
<path display="none" fill="none" stroke="#FFD24D" stroke-width="10" stroke-linecap="round" stroke-linejoin="round" stroke-miterlimit="10" d="
	M300.001,692c0,0,0-190.5,0-210s20-20,20-20h402c20,0,20-20.043,20-20.043V255c0-19.5-20-20-20-20h-642c-20.136,0-20-20-20-20V5"/>
<g display="none">
	<g display="inline">
		<path fill="none" stroke="#F5C336" stroke-width="10" stroke-linecap="round" stroke-linejoin="round" d="M300.001,692
			c0,0,0-8.669,0-22.498"/>
		
			<path fill="none" stroke="#F5C336" stroke-width="10" stroke-linecap="round" stroke-linejoin="round" stroke-dasharray="44.4253,44.4253" d="
			M300.001,625.061c0-56.919,0-131.267,0-143.061c0-19.5,20-20,20-20h402c20,0,20-20.043,20-20.043V255c0-19.5-20-20-20-20h-642
			c-20.136,0-20-20-20-20V49.698"/>
		
			<line fill="none" stroke="#F5C336" stroke-width="10" stroke-linecap="round" stroke-linejoin="round" x1="60.001" y1="27.5" x2="60.001" y2="5"/>
	</g>
</g>
<g>
	<defs>
		<rect id="SVGID_2_" x="157.58" y="481.334" width="284.666" height="201.666"/>
	</defs>
	<clipPath id="SVGID_3_">
		<use xlink:href="#SVGID_2_"  display="none" overflow="visible"/>
	</clipPath>
	<path display="none" clip-path="url(#SVGID_3_)" fill="#F1F2F2" d="M428,503c0-3.977-4.023-8-8-8H180c-3.977,0-8,4.023-8,8v204
		c0,3.977,4.023,8,8,8h240c3.977,0,8-4.023,8-8V503z"/>
	<path display="none" clip-path="url(#SVGID_3_)" fill="#DCDDDE" d="M172,591v116c0,3.977,4.023,8,8,8h240c3.977,0,8-4.023,8-8V591
		H172z"/>
</g>
<polygon display="none" fill="#E7E8E9" points="318,654 240,654 240,528 360,528 360,612 "/>
<rect x="255" y="543" display="none" fill="#F3B41B" width="90" height="60"/>
<polygon display="none" fill="#FFD24D" points="288,558 288,588 312,573 "/>
<g display="none">
	<defs>
		<path id="SVGID_1_" d="M428,503c0-3.977-4.023-8-8-8H180c-3.977,0-8,4.023-8,8v204c0,3.977,4.023,8,8,8h240c3.977,0,8-4.023,8-8
			V503z"/>
	</defs>
	<clipPath id="SVGID_4_" display="inline">
		<use xlink:href="#SVGID_1_"  display="none" overflow="visible"/>
	</clipPath>
	<g clip-path="url(#SVGID_4_)">
		<polygon fill="#E7E8E9" points="184,622 145,622 145,559 205,559 205,601 		"/>
		<rect x="179.5" y="598" fill="#04A95F" width="18" height="6"/>
		<rect x="152.5" y="587.5" fill="#04A95F" width="45" height="6"/>
		<rect x="179.5" y="577" fill="#04A95F" width="18" height="6"/>
		<rect x="179.5" y="566.5" fill="#04A95F" width="18" height="6"/>
		<rect x="179.5" y="608.5" fill="#04A95F" width="4.5" height="6"/>
		<polygon fill="#E7E8E9" points="184,601 184,622 205,601 		"/>
		<rect x="152.5" y="566.5" fill="#04A95F" width="22.5" height="16.5"/>
		<rect x="152.5" y="598" fill="#04A95F" width="22.5" height="16.5"/>
		<circle fill="#03914A" cx="163.75" cy="574.75" r="6"/>
		<polygon fill="#03914A" points="163.75,601 172,611.5 155.5,611.5 		"/>
		<polygon opacity="0.8" fill="#B2B4B6" points="184,622 184,601 164.5,622 		"/>
	</g>
	<g clip-path="url(#SVGID_4_)">
		<polygon fill="#E7E8E9" points="434,622 395,622 395,559 455,559 455,601 		"/>
		<rect x="402.5" y="566.5" fill="#E04A3F" width="45" height="27"/>
		<rect x="402.5" y="598" fill="#CD372C" width="16.5" height="16.5"/>
		<polygon fill="#CD372C" points="441.5,614.5 423.5,614.5 423.5,598 447.5,598 447.5,608.5 		"/>
		<polygon fill="#E7E8E9" points="434,601 434,622 455,601 		"/>
		<polygon opacity="0.8" fill="#B2B4B6" points="434,622 434,601 414.5,622 		"/>
		<rect x="405.436" y="601" fill="#E04A3F" width="4.5" height="10.5"/>
		<rect x="411.5" y="604" fill="#E04A3F" width="4.5" height="7.5"/>
		<rect x="407.718" y="574" fill="#CD372C" width="4.5" height="15"/>
		<rect x="415.282" y="570.625" fill="#CD372C" width="4.5" height="18.375"/>
		<rect x="422.782" y="575.5" fill="#CD372C" width="4.5" height="13.5"/>
		<rect x="430.282" y="579.25" fill="#CD372C" width="4.5" height="9.75"/>
		<rect x="437.782" y="581.5" fill="#CD372C" width="4.5" height="7.5"/>
	</g>
	<g clip-path="url(#SVGID_4_)">
		<polygon fill="#E7E8E9" points="431,612 405,612 405,570 445,570 445,598 		"/>
		<rect x="410" y="596" fill="#E04A3F" width="30" height="4"/>
		<rect x="410" y="603" fill="#E04A3F" width="21" height="4"/>
		<polygon fill="#E7E8E9" points="431,598 431,612 445,598 		"/>
		<polygon opacity="0.2" points="431,612 431,598 418,612 		"/>
		<rect x="410" y="575" fill="#E04A3F" width="30" height="18"/>
		<polygon fill="#CD372C" points="410,593 418,581 426,593 		"/>
		<polygon fill="#CD372C" points="418,593 425,584 432,593 		"/>
		<circle fill="#CD372C" cx="434" cy="581" r="3.5"/>
	</g>
	<g clip-path="url(#SVGID_4_)">
		<polygon fill="#E7E8E9" points="181,612 155,612 155,570 195,570 195,598 		"/>
		<rect x="178" y="596" fill="#04A95F" width="12" height="4"/>
		<rect x="160" y="589" fill="#04A95F" width="30" height="4"/>
		<rect x="178" y="582" fill="#04A95F" width="12" height="4"/>
		<rect x="178" y="575" fill="#04A95F" width="12" height="4"/>
		<rect x="178" y="603" fill="#04A95F" width="3" height="4"/>
		<polygon fill="#E7E8E9" points="181,598 181,612 195,598 		"/>
		<rect x="160" y="575" fill="#04A95F" width="15" height="11"/>
		<rect x="160" y="596" fill="#04A95F" width="15" height="11"/>
		<circle fill="#03914A" cx="167.5" cy="580.5" r="4"/>
		<polygon fill="#03914A" points="167.5,598 173,605 162,605 		"/>
		<polygon opacity="0.2" points="181,612 181,598 168,612 		"/>
	</g>
</g>
<path fill="#C7C8CA" d="M205.005,595.5c-1.19,0-2.35-0.48-3.19-1.32c-0.84-0.84-1.319-2-1.319-3.18c0-1.181,0.479-2.34,1.319-3.181
	c0.841-0.84,2-1.319,3.19-1.319c1.18,0,2.34,0.479,3.18,1.319c0.84,0.841,1.32,2,1.32,3.181c0,1.18-0.48,2.34-1.32,3.18
	S206.185,595.5,205.005,595.5z M377.725,595.5L377.725,595.5c2.49,0,4.5-2.021,4.5-4.5l0,0c0-2.48-2.01-4.5-4.5-4.5l0,0
	c-2.479,0-4.5,2.02-4.5,4.5C373.225,593.479,375.245,595.5,377.725,595.5z M360.455,595.5L360.455,595.5c2.479,0,4.5-2.021,4.5-4.5
	l0,0c0-2.48-2.021-4.5-4.5-4.5l0,0c-2.49,0-4.5,2.02-4.5,4.5C355.955,593.479,357.965,595.5,360.455,595.5z M343.185,595.5
	L343.185,595.5c2.48,0,4.5-2.021,4.5-4.5l0,0c0-2.48-2.02-4.5-4.5-4.5l0,0c-2.49,0-4.5,2.02-4.5,4.5
	C338.685,593.479,340.694,595.5,343.185,595.5z M325.905,595.5L325.905,595.5c2.489,0,4.5-2.021,4.5-4.5l0,0
	c0-2.48-2.011-4.5-4.5-4.5l0,0c-2.48,0-4.5,2.02-4.5,4.5C321.405,593.479,323.425,595.5,325.905,595.5z M308.635,595.5
	L308.635,595.5c2.48,0,4.5-2.021,4.5-4.5l0,0c0-2.48-2.02-4.5-4.5-4.5l0,0c-2.479,0-4.5,2.02-4.5,4.5
	C304.135,593.479,306.155,595.5,308.635,595.5z M291.365,595.5L291.365,595.5c2.479,0,4.5-2.021,4.5-4.5l0,0
	c0-2.48-2.021-4.5-4.5-4.5l0,0c-2.49,0-4.5,2.02-4.5,4.5C286.865,593.479,288.875,595.5,291.365,595.5z M274.085,595.5
	L274.085,595.5c2.49,0,4.51-2.021,4.51-4.5l0,0c0-2.48-2.02-4.5-4.51-4.5l0,0c-2.48,0-4.49,2.02-4.49,4.5
	C269.595,593.479,271.604,595.5,274.085,595.5z M256.814,595.5L256.814,595.5c2.49,0,4.5-2.021,4.5-4.5l0,0c0-2.48-2.01-4.5-4.5-4.5
	l0,0c-2.479,0-4.5,2.02-4.5,4.5C252.314,593.479,254.335,595.5,256.814,595.5z M239.545,595.5L239.545,595.5
	c2.49,0,4.5-2.021,4.5-4.5l0,0c0-2.48-2.01-4.5-4.5-4.5l0,0c-2.49,0-4.5,2.02-4.5,4.5C235.045,593.479,237.055,595.5,239.545,595.5z
	 M222.274,595.5L222.274,595.5c2.48,0,4.5-2.021,4.5-4.5l0,0c0-2.48-2.02-4.5-4.5-4.5l0,0c-2.489,0-4.5,2.02-4.5,4.5
	C217.774,593.479,219.785,595.5,222.274,595.5z M398.185,594.18c0.84-0.84,1.32-2,1.32-3.18c0-1.181-0.48-2.34-1.32-3.181
	c-0.84-0.84-2-1.319-3.18-1.319c-1.19,0-2.35,0.479-3.19,1.319c-0.84,0.841-1.319,2-1.319,3.181c0,1.18,0.479,2.34,1.319,3.18
	c0.841,0.84,2,1.32,3.19,1.32C396.185,595.5,397.345,595.02,398.185,594.18z"/>
<path fill="#C7C8CA" d="M414.015,595.5c-1.19,0-2.35-0.48-3.19-1.32c-0.84-0.84-1.319-2-1.319-3.18c0-1.181,0.479-2.34,1.319-3.181
	c0.841-0.84,2-1.319,3.19-1.319c1.18,0,2.34,0.479,3.18,1.319c0.84,0.841,1.32,2,1.32,3.181c0,1.18-0.48,2.34-1.32,3.18
	S415.194,595.5,414.015,595.5z M586.734,595.5L586.734,595.5c2.49,0,4.5-2.021,4.5-4.5l0,0c0-2.48-2.01-4.5-4.5-4.5l0,0
	c-2.479,0-4.5,2.02-4.5,4.5C582.234,593.479,584.255,595.5,586.734,595.5z M569.465,595.5L569.465,595.5c2.479,0,4.5-2.021,4.5-4.5
	l0,0c0-2.48-2.021-4.5-4.5-4.5l0,0c-2.49,0-4.5,2.02-4.5,4.5C564.965,593.479,566.975,595.5,569.465,595.5z M552.194,595.5
	L552.194,595.5c2.48,0,4.5-2.021,4.5-4.5l0,0c0-2.48-2.02-4.5-4.5-4.5l0,0c-2.49,0-4.5,2.02-4.5,4.5
	C547.694,593.479,549.704,595.5,552.194,595.5z M534.915,595.5L534.915,595.5c2.489,0,4.5-2.021,4.5-4.5l0,0
	c0-2.48-2.011-4.5-4.5-4.5l0,0c-2.48,0-4.5,2.02-4.5,4.5C530.415,593.479,532.435,595.5,534.915,595.5z M517.645,595.5
	L517.645,595.5c2.48,0,4.5-2.021,4.5-4.5l0,0c0-2.48-2.02-4.5-4.5-4.5l0,0c-2.479,0-4.5,2.02-4.5,4.5
	C513.145,593.479,515.165,595.5,517.645,595.5z M500.375,595.5L500.375,595.5c2.479,0,4.5-2.021,4.5-4.5l0,0
	c0-2.48-2.021-4.5-4.5-4.5l0,0c-2.49,0-4.5,2.02-4.5,4.5C495.875,593.479,497.885,595.5,500.375,595.5z M483.095,595.5
	L483.095,595.5c2.49,0,4.51-2.021,4.51-4.5l0,0c0-2.48-2.02-4.5-4.51-4.5l0,0c-2.48,0-4.49,2.02-4.49,4.5
	C478.604,593.479,480.614,595.5,483.095,595.5z M465.824,595.5L465.824,595.5c2.49,0,4.5-2.021,4.5-4.5l0,0c0-2.48-2.01-4.5-4.5-4.5
	l0,0c-2.479,0-4.5,2.02-4.5,4.5C461.324,593.479,463.345,595.5,465.824,595.5z M448.555,595.5L448.555,595.5
	c2.49,0,4.5-2.021,4.5-4.5l0,0c0-2.48-2.01-4.5-4.5-4.5l0,0c-2.49,0-4.5,2.02-4.5,4.5C444.055,593.479,446.064,595.5,448.555,595.5z
	 M431.284,595.5L431.284,595.5c2.48,0,4.5-2.021,4.5-4.5l0,0c0-2.48-2.02-4.5-4.5-4.5l0,0c-2.489,0-4.5,2.02-4.5,4.5
	C426.784,593.479,428.795,595.5,431.284,595.5z M607.194,594.18c0.84-0.84,1.32-2,1.32-3.18c0-1.181-0.48-2.34-1.32-3.181
	c-0.84-0.84-2-1.319-3.18-1.319c-1.19,0-2.35,0.479-3.19,1.319c-0.84,0.841-1.319,2-1.319,3.181c0,1.18,0.479,2.34,1.319,3.18
	c0.841,0.84,2,1.32,3.19,1.32C605.194,595.5,606.354,595.02,607.194,594.18z"/>
</svg>