<svg width="399" height="432" viewBox="0 0 399 432" xmlns="http://www.w3.org/2000/svg"><title>Microsoft Edge logo</title><path d="M80.975 114.404c-51.26 31.91-80.56 77.254-80.56 77.254s7.593-95.08 80.56-150.715C109.995 18.817 149.67.28 203.033.28c20.047 0 62.085 3.487 99.95 26.832 37.868 23.346 53.166 42.902 70.226 71.533 7.36 12.354 13.354 28.225 17.094 43.535 7.007 28.684 7.86 62.99 7.86 62.99v45.19H127.542s-6.61 90.92 117.848 90.92c43.285 0 58.442-6.8 72.678-11.014 22.287-6.6 43.807-21.31 43.807-21.31l.04 90.84S310.98 431.17 234.03 431.17c-21.67 0-44.506-1.816-66.53-8.96-19.245-6.245-59.55-23.087-86.525-62.56-9.543-13.96-19.883-32.54-25.004-50.694-5.534-19.625-5.466-38.69-5.466-49.193 0-39.285 13.42-76.79 36.71-103.906 30.168-35.12 68.298-50.583 68.298-50.583s-12.42 14.48-20.06 32.507c-7.64 18.03-9.73 36.167-9.73 36.167h152.81s8.938-91.31-86.465-91.31c-35.947 0-80.097 12.477-111.09 31.77z" fill="#3177BC" fill-rule="evenodd"/></svg>