<?xml version="1.0" encoding="utf-8"?>
<!-- Generator: Adobe Illustrator 15.0.2, SVG Export Plug-In  -->
<!DOCTYPE svg PUBLIC "-//W3C//DTD SVG 1.1//EN" "http://www.w3.org/Graphics/SVG/1.1/DTD/svg11.dtd" [
	<!ENTITY ns_flows "http://ns.adobe.com/Flows/1.0/">
]>
<svg version="1.1"
	 xmlns="http://www.w3.org/2000/svg" xmlns:xlink="http://www.w3.org/1999/xlink" xmlns:a="http://ns.adobe.com/AdobeSVGViewerExtensions/3.0/"
	 x="0px" y="0px" width="174px" height="142px" viewBox="656 352 174 142"
	 overflow="visible" enable-background="new 656 352 174 142" xml:space="preserve">
<defs>
</defs>
<g display="none">
	<rect x="0.5" y="13.5" display="inline" fill-rule="evenodd" clip-rule="evenodd" fill="#FFFFFF" width="979.001" height="670"/>
	<path display="inline" fill="#D4D4D4" d="M979.001,14v669H1V14H979.001 M980.001,13H0v671h980.001V13L980.001,13z"/>
</g>
<path display="none" fill="none" stroke="#FFD24D" stroke-width="10" stroke-linecap="round" stroke-linejoin="round" stroke-miterlimit="10" d="
	M300,692c0,0,0-190.5,0-210s20-20,20-20h402c20,0,20-20.043,20-20.043V255c0-19.5-20-20-20-20H80c-20.136,0-20-20-20-20V5"/>
<g display="none">
	<g display="inline">
		<path fill="none" stroke="#F5C336" stroke-width="10" stroke-linecap="round" stroke-linejoin="round" d="M300,692
			c0,0,0-8.669,0-22.498"/>
		
			<path fill="none" stroke="#F5C336" stroke-width="10" stroke-linecap="round" stroke-linejoin="round" stroke-dasharray="44.4253,44.4253" d="
			M300,625.061c0-56.919,0-131.267,0-143.061c0-19.5,20-20,20-20h402c20,0,20-20.043,20-20.043V255c0-19.5-20-20-20-20H80
			c-20.136,0-20-20-20-20V49.698"/>
		
			<line fill="none" stroke="#F5C336" stroke-width="10" stroke-linecap="round" stroke-linejoin="round" x1="60" y1="27.5" x2="60" y2="5"/>
	</g>
</g>
<rect x="656" y="352" fill="#DCDDDE" width="174" height="142"/>
<rect x="656" y="352" fill="#E7E8E9" width="86" height="142"/>
<rect x="656" y="462" fill="#049B5A" width="174" height="32"/>
<rect x="656" y="462" fill="#04A95F" width="86" height="32"/>
<path display="none" fill="none" stroke="#BCBEC0" stroke-width="29.0828" stroke-miterlimit="10" d="M799.235,352
	c0,0-0.006-65.509-56.905-65.509c-57.063,0-56.906,65.509-56.906,65.509"/>
<line fill="none" stroke="#D1D3D4" stroke-width="6" stroke-linecap="round" stroke-linejoin="round" stroke-miterlimit="10" x1="676" y1="376" x2="810" y2="376"/>
<line fill="none" stroke="#D1D3D4" stroke-width="6" stroke-linecap="round" stroke-linejoin="round" stroke-miterlimit="10" x1="676" y1="397" x2="810" y2="397"/>
<line fill="none" stroke="#D1D3D4" stroke-width="6" stroke-linecap="round" stroke-linejoin="round" stroke-miterlimit="10" x1="676" y1="418" x2="810" y2="418"/>
<line fill="none" stroke="#D1D3D4" stroke-width="6" stroke-linecap="round" stroke-linejoin="round" stroke-miterlimit="10" x1="676" y1="439" x2="810" y2="439"/>
</svg>